<svg width="29" height="29" viewBox="0 0 29 29" fill="none" xmlns="http://www.w3.org/2000/svg">
<path fill-rule="evenodd" clip-rule="evenodd" d="M14.435 0C6.45966 0 0 6.62305 0 14.8001C0 21.3492 4.13202 26.8807 9.86993 28.8417C10.5917 28.9712 10.8623 28.5272 10.8623 28.1387C10.8623 27.7872 10.8443 26.6217 10.8443 25.3822C7.2175 26.0667 6.27922 24.4757 5.99053 23.6432C5.82813 23.2177 5.12442 21.9042 4.51094 21.5527C4.00571 21.2752 3.28396 20.5907 4.49289 20.5722C5.62965 20.5537 6.44162 21.6452 6.71228 22.0892C8.01143 24.3277 10.0865 23.6987 10.9165 23.3102C11.0428 22.3482 11.4217 21.7007 11.8367 21.3307C8.62491 20.9607 5.26878 19.6842 5.26878 14.0231C5.26878 12.4136 5.82813 11.0816 6.74836 10.0456C6.60401 9.67558 6.09879 8.15856 6.89271 6.12355C6.89271 6.12355 8.10164 5.73505 10.8623 7.64056C12.0171 7.30756 13.2441 7.14106 14.4711 7.14106C15.6981 7.14106 16.925 7.30756 18.0798 7.64056C20.8405 5.71655 22.0495 6.12355 22.0495 6.12355C22.8434 8.15856 22.3382 9.67558 22.1938 10.0456C23.114 11.0816 23.6734 12.3951 23.6734 14.0231C23.6734 19.7027 20.2992 20.9607 17.0874 21.3307C17.6107 21.7932 18.0618 22.6812 18.0618 24.0687C18.0618 26.0482 18.0438 27.6392 18.0438 28.1387C18.0438 28.5272 18.3144 28.9897 19.0362 28.8417C24.738 26.8807 28.87 21.3307 28.87 14.8001C28.87 6.62305 22.4103 0 14.435 0Z" fill="white"/>
</svg>
