<svg width="107" height="40" viewBox="0 0 107 40" fill="none" xmlns="http://www.w3.org/2000/svg">
<path d="M26.3258 6.36844L25.0242 6.94564L22.5885 3.34776H18.6096V8.00384H20.4131L21.7704 6.02212H23.0905V11.8711L21.6031 12.6407L20.3201 9.83164H18.6096V14.43L22.0493 15.1034L21.3056 16.6426H12.8642V15.2766L14.612 13.8528V3.6556L12.4924 3.05916L13.2361 1.51996H24.7825L26.3258 1.17364V6.36844ZM32.1003 6.00288C33.4762 6.00288 34.5422 6.53518 35.2983 7.5998C36.0544 8.66445 36.4139 10.178 36.3767 12.1404H29.8133C29.962 12.7304 30.21 13.1986 30.557 13.545C30.9041 13.8785 31.3442 14.0452 31.8771 14.0452C32.7572 14.0452 34.0711 13.7117 35.8189 13.0447L36.3767 14.353L33.8294 16.4694C32.9865 16.7131 31.9763 16.835 30.7987 16.835C29.8319 16.835 28.9642 16.6169 28.1957 16.1808C27.4396 15.7319 26.8446 15.1226 26.4107 14.353C25.9893 13.5706 25.7786 12.7048 25.7786 11.7556C25.7786 10.7295 26.107 9.77392 26.764 8.88888C27.421 8.00384 28.2452 7.30476 29.2369 6.79172C30.2286 6.26582 31.1892 6.00288 32.1188 6.00288H32.1003ZM31.1148 8.58104C30.6562 8.58104 30.3091 8.74776 30.0736 9.08128C29.8381 9.40192 29.708 9.90215 29.6831 10.582H32.751C32.689 9.90215 32.5279 9.40192 32.2676 9.08128C32.0073 8.74776 31.6168 8.58104 31.0962 8.58104H31.1148ZM50.5987 16.6234H45.9504V10.6782C45.9504 10.1267 45.8698 9.73544 45.7087 9.50456C45.5599 9.27368 45.2934 9.15824 44.9091 9.15824C44.3761 9.15824 43.8555 9.29292 43.3473 9.56228V14.5647L45.0207 15.1034L44.277 16.6426H37.9739V15.2766L39.6287 13.7758V10.024L37.9739 8.90812V7.54208L42.2689 5.82972L43.0498 7.90764L45.1509 6.1568C45.4855 6.05418 45.8884 6.00288 46.3594 6.00288C47.3758 6.00288 48.1816 6.27224 48.7766 6.81096C49.3715 7.33689 49.669 8.05512 49.669 8.96584V14.5647L51.3424 15.0842L50.5987 16.6234ZM58.3853 16.6426H52.0822V15.2766L53.737 13.7758V10.024L52.0822 8.90812V7.54208L56.0054 5.82972H57.4557V14.5647L59.1291 15.1034L58.3853 16.6426ZM55.615 0C56.2347 0 56.7429 0.198816 57.1396 0.59644C57.5487 0.994063 57.7532 1.4879 57.7532 2.07792C57.7532 2.48838 57.6044 2.87318 57.3069 3.23232C57.0218 3.59146 56.6623 3.88006 56.2285 4.09812C55.7947 4.31618 55.3732 4.4252 54.9642 4.4252C54.3568 4.4252 53.8486 4.22638 53.4396 3.82876C53.0305 3.43114 52.826 2.94372 52.826 2.36652C52.826 1.95606 52.9685 1.57126 53.2536 1.21212C53.5511 0.840144 53.9167 0.545137 54.3506 0.32708C54.7844 0.109023 55.2059 0 55.615 0ZM71.0835 16.6426H67.0116L64.5573 13.064L63.2 14.3338L64.8176 15.1226L64.0739 16.6618H59.6301V15.2958L63.609 11.7364L61.3221 8.658L59.407 7.73448L60.1507 6.19528H64.2226L66.7699 9.7162L68.0528 8.50408L66.4352 7.73448L67.1789 6.19528H71.6227V7.56132L67.6438 11.1207L69.6704 13.8528L71.8272 15.1034L71.0835 16.6426Z" fill="white"/>
<path d="M39.2856 38.5762C36.7073 39.5254 34.9409 40 33.9865 40C33.5775 40 32.9391 39.5382 32.0714 38.6147C31.2161 37.704 30.2245 36.5496 29.0965 35.1515C28.5759 35.2542 28.1048 35.3054 27.6834 35.3054C26.196 35.3054 24.882 34.9848 23.7417 34.3434C22.6136 33.6893 21.7336 32.785 21.1014 31.6306C20.4816 30.4762 20.1718 29.1679 20.1718 27.7056C20.1718 26.2049 20.6366 24.8196 21.5662 23.5498C22.5083 22.2672 23.6734 21.2602 25.0618 20.5291C26.45 19.7852 27.7639 19.4132 29.0035 19.4132C30.491 19.4132 31.8049 19.7403 32.9453 20.3944C34.0856 21.0486 34.9658 21.9529 35.5856 23.1073C36.2053 24.2617 36.5152 25.57 36.5152 27.0322C36.5152 28.5202 36.0565 29.8925 35.1393 31.1496C34.222 32.4066 33.0692 33.4135 31.681 34.1703C32.6726 34.8886 33.5961 35.5299 34.4514 36.0943C35.319 36.6587 35.8459 36.9408 36.0318 36.9408H38.5419L39.2856 38.5762ZM24.5412 26.7821C24.5412 27.8723 24.696 28.8665 25.006 29.7643C25.3159 30.6621 25.7869 31.3805 26.4191 31.9192C27.0636 32.4579 27.8445 32.7273 28.7618 32.7273C29.3815 32.7273 29.9456 32.5221 30.4538 32.1116C30.9744 31.6883 31.3835 31.1111 31.681 30.38C31.9908 29.6489 32.1458 28.8343 32.1458 27.9365C32.1458 26.8334 31.9908 25.8329 31.681 24.9351C31.371 24.0372 30.9001 23.3254 30.2679 22.7994C29.6357 22.2607 28.8548 21.9913 27.9251 21.9913C27.3053 21.9913 26.7352 22.203 26.2146 22.6263C25.7063 23.0368 25.2973 23.6075 24.9874 24.3386C24.6899 25.0697 24.5412 25.8843 24.5412 26.7821ZM50.1722 34.9206H45.5239V33.4776L43.7204 34.9784C43.3857 35.081 42.9828 35.1323 42.5118 35.1323C41.4953 35.1323 40.6897 34.8694 40.0947 34.3434C39.4997 33.8047 39.2022 33.08 39.2022 32.1693V28.3405L37.5474 27.3593V25.9933L41.4706 24.2809H42.9209V30.4377C42.9209 30.9892 42.9952 31.3805 43.144 31.6114C43.3051 31.8422 43.5778 31.9577 43.9621 31.9577C44.4951 31.9577 45.0157 31.823 45.5239 31.5536V28.3405L43.8691 27.3593V25.9933L47.7923 24.2809H49.2426V32.8427L50.916 33.3814L50.1722 34.9206ZM57.9715 34.9206H51.6683V33.5546L53.3231 32.0539V28.3021L51.6683 27.1861V25.8201L55.5915 24.1077H57.0418V32.8427L58.7152 33.3814L57.9715 34.9206ZM55.2011 18.278C55.8209 18.278 56.3291 18.4769 56.7257 18.8745C57.1348 19.2721 57.3393 19.766 57.3393 20.356C57.3393 20.7664 57.1905 21.1512 56.893 21.5103C56.608 21.8695 56.2485 22.1581 55.8146 22.3761C55.3809 22.5942 54.9594 22.7032 54.5503 22.7032C53.943 22.7032 53.4347 22.5044 53.0257 22.1068C52.6166 21.7092 52.4121 21.2217 52.4121 20.6445C52.4121 20.2341 52.5547 19.8493 52.8397 19.4901C53.1372 19.1181 53.5029 18.8232 53.9367 18.6051C54.3706 18.387 54.792 18.278 55.2011 18.278ZM65.8355 27.4555C65.4883 27.4555 65.1537 27.571 64.8314 27.8018V32.6311L67.8064 33.3814L67.0626 34.9206H59.458V33.5546L61.1128 32.0539V28.3021L59.458 27.1861V25.8201L63.753 24.1077L64.4968 26.1087L66.0772 24.4348C66.3003 24.3322 66.5792 24.2809 66.9139 24.2809C67.7195 24.2809 68.3951 24.4541 68.9405 24.8004C69.4859 25.1467 69.8578 25.6277 70.0561 26.2434L67.9551 28.9755H66.5048C66.5048 28.424 66.4552 28.0327 66.3561 27.8018C66.2569 27.571 66.0833 27.4555 65.8355 27.4555ZM76.8445 24.2809C77.8114 24.2809 78.6728 24.5053 79.429 24.9543C80.1975 25.3904 80.7924 25.9997 81.214 26.7821C81.6477 27.5517 81.8647 28.4111 81.8647 29.3603C81.8647 30.3864 81.5362 31.342 80.8793 32.227C80.2223 33.1121 79.3979 33.8175 78.4064 34.3434C77.4147 34.8565 76.4541 35.113 75.5244 35.113C74.5576 35.113 73.6898 34.8949 72.9214 34.4589C72.1652 34.0099 71.5702 33.4007 71.1364 32.6311C70.7149 31.8487 70.5042 30.9829 70.5042 30.0337C70.5042 29.0075 70.8327 28.052 71.4897 27.1669C72.1466 26.2819 72.9709 25.5828 73.9626 25.0697C74.9542 24.5438 75.9149 24.2809 76.8445 24.2809ZM75.7661 26.8591C75.3694 26.8591 75.0596 27.0515 74.8365 27.4363C74.6257 27.8083 74.5204 28.3662 74.5204 29.1101C74.5204 30.1106 74.7001 30.9315 75.0596 31.5729C75.4314 32.2142 75.9458 32.5349 76.6028 32.5349C76.9994 32.5349 77.3031 32.3425 77.5139 31.9577C77.737 31.5729 77.8486 31.0085 77.8486 30.2645C77.8486 29.2641 77.6626 28.4495 77.2908 27.8211C76.9313 27.1797 76.423 26.8591 75.7661 26.8591ZM91.8857 31.0726L92.6295 29.3025L93.931 29.6874V35.267L92.1646 34.9206H83.9274V33.4199L89.1897 28.3213H86.0656L85.359 29.899L84.0575 29.5142V24.127L85.8239 24.4733H94.0611V25.974L88.8178 31.0726H91.8857Z" fill="white"/>
<path fill-rule="evenodd" clip-rule="evenodd" d="M0.22522 8.90884C0.0810108 8.78648 0 8.62053 0 8.44757C0 8.2746 0.0810108 8.10865 0.22522 7.98629L7.9263 1.45842C7.99686 1.39429 8.08184 1.34284 8.17629 1.30716C8.27074 1.27149 8.37273 1.2523 8.4762 1.25076C8.57958 1.24921 8.6823 1.26533 8.77815 1.29817C8.87409 1.331 8.9612 1.37986 9.03427 1.44185C9.10744 1.50384 9.16508 1.57767 9.20384 1.65895C9.24252 1.74024 9.26158 1.8273 9.25972 1.91495C9.25795 2.0026 9.23527 2.08904 9.19315 2.16912C9.15113 2.24919 9.09043 2.32126 9.01475 2.38102L1.85786 8.44757L9.01475 14.5141C9.09043 14.5739 9.15113 14.6459 9.19315 14.7261C9.23527 14.8061 9.25795 14.8926 9.25972 14.9802C9.26158 15.0679 9.24252 15.1549 9.20384 15.2362C9.16508 15.3175 9.10744 15.3913 9.03427 15.4533C8.9612 15.5153 8.87409 15.5642 8.77815 15.597C8.6823 15.6299 8.57958 15.6459 8.4762 15.6444C8.37273 15.6428 8.27074 15.6237 8.17629 15.588C8.08184 15.5523 7.99686 15.5009 7.9263 15.4368L0.22522 8.90884Z" fill="url(#paint0_linear_139_36)"/>
<path fill-rule="evenodd" clip-rule="evenodd" d="M106.684 30.1122C106.828 30.2346 106.909 30.4006 106.909 30.5735C106.909 30.7465 106.828 30.9124 106.684 31.0348L98.9827 37.5626C98.913 37.6268 98.8275 37.6783 98.7336 37.714C98.6388 37.7496 98.5365 37.7688 98.4333 37.7703C98.3301 37.7719 98.2269 37.7557 98.1312 37.7229C98.0354 37.6901 97.948 37.6412 97.8755 37.5793C97.8021 37.5172 97.7444 37.4434 97.7054 37.3622C97.6673 37.2809 97.6477 37.1938 97.6496 37.1062C97.6515 37.0184 97.6738 36.9321 97.7165 36.852C97.7584 36.7719 97.8188 36.6998 97.895 36.6401L105.052 30.5735L97.895 24.507C97.8188 24.4472 97.7584 24.3752 97.7165 24.295C97.6738 24.215 97.6515 24.1285 97.6496 24.0409C97.6477 23.9532 97.6673 23.8662 97.7054 23.7849C97.7444 23.7036 97.8021 23.6298 97.8755 23.5678C97.948 23.5058 98.0354 23.4569 98.1312 23.4241C98.2269 23.3912 98.3301 23.3752 98.4333 23.3767C98.5365 23.3782 98.6388 23.3974 98.7336 23.4331C98.8275 23.4688 98.913 23.5202 98.9827 23.5844L106.684 30.1122Z" fill="url(#paint1_linear_139_36)"/>
<defs>
<linearGradient id="paint0_linear_139_36" x1="9.25984" y1="8.44757" x2="0" y2="8.44757" gradientUnits="userSpaceOnUse">
<stop stop-color="#4AB1F1"/>
<stop offset="0.33" stop-color="#566CEC"/>
<stop offset="0.66" stop-color="#975BCE"/>
<stop offset="1" stop-color="#FF7C51"/>
</linearGradient>
<linearGradient id="paint1_linear_139_36" x1="106.909" y1="30.5735" x2="97.6495" y2="30.5735" gradientUnits="userSpaceOnUse">
<stop stop-color="#4AB1F1"/>
<stop offset="0.33" stop-color="#566CEC"/>
<stop offset="0.66" stop-color="#975BCE"/>
<stop offset="1" stop-color="#FF7C51"/>
</linearGradient>
</defs>
</svg>
